<svg id="그룹_34" data-name="그룹 34" xmlns="http://www.w3.org/2000/svg" xmlns:xlink="http://www.w3.org/1999/xlink" width="148" height="51" viewBox="0 0 148 51">
  <defs>
    <clipPath id="clip-path">
      <rect id="사각형_9" data-name="사각형 9" width="148" height="51" fill="none"/>
    </clipPath>
  </defs>
  <path id="패스_84" data-name="패스 84" d="M178.346,120.515l-3.916-5.318-2.35,2.181v3.136h-2.114V109.728h2.114v5.424l5.7-5.424h2.585l-4.523,4.227,4.993,6.56Z" transform="translate(-109.999 -70.596)" fill="#1a1818"/>
  <g id="그룹_22" data-name="그룹 22">
    <g id="그룹_21" data-name="그룹 21" clip-path="url(#clip-path)">
      <path id="패스_85" data-name="패스 85" d="M208.931,120.631c-2.918,0-5.131-1.54-5.131-3.826v-7.341h2.173v7.264c0,1.477,1.167,2.395,2.958,2.395s2.978-.918,2.978-2.395v-7.264h2.173v7.341c0,2.286-2.233,3.826-5.151,3.826" transform="translate(-132.054 -70.741)" fill="#1a1818"/>
      <path id="패스_86" data-name="패스 86" d="M250.329,120.8v-7.4l-3.3,5.4h-1.61l-3.38-5.4v7.4h-2.173V109.728h2.173l4.185,6.89,4.106-6.89H252.5V120.8Z" transform="translate(-155.423 -70.911)" fill="#1a1818"/>
      <path id="패스_87" data-name="패스 87" d="M284.66,120.461A7.636,7.636,0,0,1,279.59,119l1.448-1.1a5.578,5.578,0,0,0,3.662,1.057c1.871,0,2.959-.622,2.959-1.7a1.327,1.327,0,0,0-.565-1.151,2.911,2.911,0,0,0-1.569-.467l-1.69-.187a5.705,5.705,0,0,1-2.716-.887,2.461,2.461,0,0,1-1.047-2.115c0-1.929,1.811-3.251,4.789-3.251a7.055,7.055,0,0,1,4.447,1.26l-1.388,1.058a5,5,0,0,0-3.119-.856c-1.69,0-2.616.747-2.616,1.727a1.192,1.192,0,0,0,.543,1.027,3.747,3.747,0,0,0,1.61.513l1.63.187a5.548,5.548,0,0,1,2.676.824,2.607,2.607,0,0,1,1.167,2.271c0,2.037-2.152,3.251-5.151,3.251" transform="translate(-181.162 -70.57)" fill="#1a1818"/>
      <path id="패스_88" data-name="패스 88" d="M318.271,120.631c-2.918,0-5.131-1.54-5.131-3.826v-7.341h2.173v7.264c0,1.477,1.167,2.395,2.958,2.395s2.978-.918,2.978-2.395v-7.264h2.173v7.341c0,2.286-2.233,3.826-5.151,3.826" transform="translate(-202.901 -70.741)" fill="#1a1818"/>
      <path id="패스_89" data-name="패스 89" d="M358,120.8l-6.62-7.792V120.8H349.2V109.728H351.2l6.62,7.777v-7.777h2.173V120.8Z" transform="translate(-226.27 -70.911)" fill="#1a1818"/>
      <path id="패스_90" data-name="패스 90" d="M394.936,119.2a6.692,6.692,0,0,1-7.707.078c-1.408-1.089-1.388-2.317-1.388-4.448s-.02-3.359,1.388-4.448a5.98,5.98,0,0,1,3.763-1.182c3.039,0,4.81,1.54,5.211,3.437h-2.193a2.83,2.83,0,0,0-3.019-1.929,3.34,3.34,0,0,0-2.113.684c-.7.591-.865,1.213-.865,3.437s.161,2.862.865,3.453a3.334,3.334,0,0,0,2.113.669,3.506,3.506,0,0,0,2.335-.778,2.16,2.16,0,0,0,.724-1.742v-.622h-3.059v-1.431h5.231v1.7a3.593,3.593,0,0,1-1.287,3.126" transform="translate(-250.009 -70.57)" fill="#1a1818"/>
      <path id="패스_91" data-name="패스 91" d="M176.136,35.125a2.13,2.13,0,0,1-1.646.61,1.759,1.759,0,0,1-1-.261,4.855,4.855,0,0,1-.91-.871,2.981,2.981,0,0,0-.585-.653,1.006,1.006,0,0,0-.628-.218,1.922,1.922,0,0,0-1.56,1.132,3.965,3.965,0,0,0-.412,1.328,14.567,14.567,0,0,0-.108,1.981v8.97a3.094,3.094,0,0,0,.3,1.72,1.673,1.673,0,0,0,1.3.37q.78,0,.78.7a.691.691,0,0,1-.78.784q-.693,0-2.166-.087-1.387-.088-2.08-.087-.65,0-1.863.087-1.3.086-1.907.087a.931.931,0,0,1-.628-.174.788.788,0,0,1-.2-.61q0-.7.823-.7a1.847,1.847,0,0,0,1.43-.414,2.793,2.793,0,0,0,.346-1.676V35.778q0-.958-.65-.958h-.477q-.78,0-.78-.653,0-.609.78-.74a6.49,6.49,0,0,0,3.423-1.916,2.152,2.152,0,0,1,1.516-.74.644.644,0,0,1,.65.414,3.551,3.551,0,0,1,.173,1.284c0,.174.043.283.13.327a.243.243,0,0,0,.26-.022,5.637,5.637,0,0,1,3.856-1.741,3.821,3.821,0,0,1,2.427.609,2.186,2.186,0,0,1,.736,1.786,2.409,2.409,0,0,1-.563,1.7" transform="translate(-105.004 -19.886)" fill="#1a1818"/>
      <path id="패스_92" data-name="패스 92" d="M215.236,41.352A5.8,5.8,0,0,1,213.7,42.44a4.4,4.4,0,0,1-1.842.348,6.451,6.451,0,0,1-2.21-.392,3.508,3.508,0,0,1-1.69-1.219,4.955,4.955,0,0,1-.888-1.938,16.276,16.276,0,0,1-.2-2.939V25.5a.73.73,0,0,0-.823-.827q-1.04,0-1.04-.7a.694.694,0,0,1,.325-.61,5.594,5.594,0,0,1,.975-.479q2.036-.74,3.206-3.919.346-1,1.083-1a.765.765,0,0,1,.715.479,2.74,2.74,0,0,1,.238,1.219v2.525a.576.576,0,0,0,.65.654h2.6a.87.87,0,0,1,.672.218,1.341,1.341,0,0,1,0,1.393.869.869,0,0,1-.672.218h-2.6q-.649,0-.65.74V38.13a3.459,3.459,0,0,0,.325,1.741,1.2,1.2,0,0,0,1.105.523,2.127,2.127,0,0,0,1.04-.218,3.943,3.943,0,0,0,.78-.588,1.5,1.5,0,0,1,.607-.414.605.605,0,0,1,.26-.044.519.519,0,0,1,.412.174.582.582,0,0,1,.152.391,2.473,2.473,0,0,1-1,1.655" transform="translate(-132.838 -11.613)" fill="#1a1818"/>
      <path id="패스_93" data-name="패스 93" d="M262.265,30.653a.846.846,0,0,1-.607.174q-.738,0-2.123-.087t-2.037-.087q-.65,0-1.863.087-1.3.086-1.907.087a.843.843,0,0,1-.607-.174.852.852,0,0,1-.173-.61q0-.7.78-.7a1.623,1.623,0,0,0,1.278-.392,2.933,2.933,0,0,0,.325-1.7V18.33a18.1,18.1,0,0,0-.108-2.2,3.171,3.171,0,0,0-.541-1.459,4.031,4.031,0,0,0-1.5-1.328,4.767,4.767,0,0,0-2.1-.414,4.211,4.211,0,0,0-1.907.479,6.209,6.209,0,0,0-1.733,1.306,2.971,2.971,0,0,0-.736,1.328,8.591,8.591,0,0,0-.173,1.938v9.274a3.113,3.113,0,0,0,.3,1.676,1.559,1.559,0,0,0,1.3.414q.736,0,.736.7a.624.624,0,0,1-.736.784q-.694,0-2.08-.087-1.3-.088-1.993-.087-.607,0-1.906.087t-1.907.087a.927.927,0,0,1-.607-.152.844.844,0,0,1-.173-.631.7.7,0,0,1,.173-.544.927.927,0,0,1,.607-.152,1.591,1.591,0,0,0,1.3-.435,2.8,2.8,0,0,0,.347-1.654V4.615q0-1.176-1.343-1.263a2,2,0,0,1-.758-.174.541.541,0,0,1-.239-.522.571.571,0,0,1,.217-.5,1.387,1.387,0,0,1,.65-.2,7.037,7.037,0,0,0,1.972-.435A6.317,6.317,0,0,0,244.022.74a3.026,3.026,0,0,1,1.56-.74.758.758,0,0,1,.78.392,3.845,3.845,0,0,1,.174,1.393v10.45a.937.937,0,0,0,.2.675q.194.2.5-.066a8.474,8.474,0,0,1,5.46-1.915q4.03,0,5.806,2.438a6.969,6.969,0,0,1,1.213,2.786,23.465,23.465,0,0,1,.26,3.962v7.14a2.658,2.658,0,0,0,.369,1.676,1.713,1.713,0,0,0,1.322.414q.78,0,.78.7a.855.855,0,0,1-.173.61" transform="translate(-155.168)" fill="#1a1818"/>
      <path id="패스_94" data-name="패스 94" d="M320.5,49.346a5.988,5.988,0,0,1-1.019.435,14.667,14.667,0,0,0-3.076,1.568,2.971,2.971,0,0,1-1.56.609.747.747,0,0,1-.65-.3,1.4,1.4,0,0,1-.217-.828v-.565a.353.353,0,0,0-.065-.218q-.065-.087-.195.044a4.571,4.571,0,0,1-2.188,1.176,13.141,13.141,0,0,1-3.4.392,7.071,7.071,0,0,1-3.1-.7,6.358,6.358,0,0,1-2.448-2.09,6.222,6.222,0,0,1-1.083-2.438,19.728,19.728,0,0,1-.3-3.962V34.891a2.073,2.073,0,0,0-.282-1.284,1.439,1.439,0,0,0-1.105-.327,1.127,1.127,0,0,1-.65-.152.618.618,0,0,1-.217-.544.859.859,0,0,1,.2-.653,1.013,1.013,0,0,1,.671-.174,11.027,11.027,0,0,1,1.127.044l1.083.044,1.387-.044q.433-.043,1.214-.044a1.155,1.155,0,0,1,.975.326,1.851,1.851,0,0,1,.238,1.067V44.121a12.738,12.738,0,0,0,.195,2.525,3.461,3.461,0,0,0,.759,1.568,3.749,3.749,0,0,0,3.033,1.132,5.06,5.06,0,0,0,2.037-.414,3.391,3.391,0,0,0,1.43-1.067,3.43,3.43,0,0,0,.52-1.306,8.727,8.727,0,0,0,.173-1.785V34.891a2.07,2.07,0,0,0-.282-1.284,1.439,1.439,0,0,0-1.105-.327,1.127,1.127,0,0,1-.65-.152.618.618,0,0,1-.216-.544.859.859,0,0,1,.2-.653,1.014,1.014,0,0,1,.671-.174,11.035,11.035,0,0,1,1.127.044l1.083.044,1.386-.044q.432-.043,1.213-.044a1.156,1.156,0,0,1,.975.326,1.851,1.851,0,0,1,.238,1.067V47q0,1.219.779,1.219h.477a1.268,1.268,0,0,1,.65.152.463.463,0,0,1,.26.414.614.614,0,0,1-.281.566" transform="translate(-193.702 -20.522)" fill="#1a1818"/>
      <path id="패스_95" data-name="패스 95" d="M376.877,28.258a10.918,10.918,0,0,1-7.886,3.048,9.016,9.016,0,0,1-5.33-1.393,3.73,3.73,0,0,1-.389-.261.941.941,0,0,0-.477-.218q-.39,0-.736.653a2.266,2.266,0,0,1-1.95,1.437q-.651,0-.651-.827a4.131,4.131,0,0,1,.043-.653,27.229,27.229,0,0,0,.26-4.31V4.615q0-1.176-1.343-1.263a1.691,1.691,0,0,1-.693-.174.561.561,0,0,1-.217-.522q0-.654.78-.7a7.97,7.97,0,0,0,2.059-.435A6.445,6.445,0,0,0,361.928.74,3.024,3.024,0,0,1,363.487,0a.778.778,0,0,1,.759.37,3.434,3.434,0,0,1,.2,1.415v9.84a.654.654,0,0,0,.195.544.4.4,0,0,0,.455.022,10.133,10.133,0,0,1,4.9-1.219,9.249,9.249,0,0,1,6.629,2.656A10.042,10.042,0,0,1,379.65,21.2a9.316,9.316,0,0,1-2.774,7.053M374.363,17.5a6.243,6.243,0,0,0-1.342-2.656,5.41,5.41,0,0,0-1.821-1.48,5.241,5.241,0,0,0-2.3-.479,6.489,6.489,0,0,0-2.1.3,5.94,5.94,0,0,0-1.8,1.045q-.563.435-.563,2v9.884a3.368,3.368,0,0,0,.91,2.613,4.926,4.926,0,0,0,3.337.958,5.46,5.46,0,0,0,2.3-.457,5.8,5.8,0,0,0,1.863-1.415,7.2,7.2,0,0,0,1.408-2.765,13.829,13.829,0,0,0,.5-3.853,15.459,15.459,0,0,0-.39-3.7" transform="translate(-231.65)" fill="#1a1818"/>
      <path id="패스_96" data-name="패스 96" d="M50.694,25.639A25.347,25.347,0,1,1,25.347.169a25.409,25.409,0,0,1,25.347,25.47" transform="translate(0 -0.109)" fill="#a865d0"/>
      <path id="패스_97" data-name="패스 97" d="M36.027,57.916a.829.829,0,0,0,.675-.626l.312-1.252c0-.156-.052-.417-.312-.417-1.92,0-2.751-.678-2.751-2.034A4.684,4.684,0,0,1,34.47,51.6c.415-.887.986-2.087,1.35-2.974l2.7-5.373c4.1,2.087,7.527,5.582,8.2,9.442.156,1.826-.156,2.921-2.025,2.921-.415,0-.623.209-.727.626L43.659,57.5c-.1.313.1.417.259.417H54.975a.829.829,0,0,0,.675-.626l.312-1.252c0-.156-.052-.417-.312-.417-1.817,0-2.959-1.148-3.322-3.912L51.082,41.223c-.312-2.713-.519-5.373-.779-8.085l-.623-6.469a.543.543,0,0,0-.571-.573H40.855c-.312.052-.467.261-.623.678l-.363,1.2a.4.4,0,0,0,.363.417c1.557,0,1.713,1.043,1.194,2.4l-4.62,9.6a15.846,15.846,0,0,0-2.8-.365c-6.333,0-12.407,4.121-12.407,8.607a3.522,3.522,0,0,0,3.79,3.6,3.389,3.389,0,0,0,1.093-.176,3.979,3.979,0,0,0,.671-.264c1.466-.741,2.214-2.22,1.672-3.3a1.959,1.959,0,0,0-1.528-1,1.661,1.661,0,0,0-.345-.037c-.021,0-.041,0-.062,0a3.451,3.451,0,0,0-.809.09,4.55,4.55,0,0,1-.069-.791c0-1.982,1.35-4.434,5.451-4.851a15.167,15.167,0,0,1,4.361.469l-4.1,8.607c-1.3,2.5-2.907,4.643-5.451,4.643-.415,0-.623.209-.727.626L25.23,57.5c-.1.313.1.417.26.417Zm10.019-12.78a20.227,20.227,0,0,0-6.489-4.069l5.295-11.528.571,5.216.623,8.4Z" transform="translate(-13.993 -16.865)" fill="#fff"/>
    </g>
  </g>
</svg>
