<?xml version="1.0" encoding="utf-8"?>
<!-- Generator: Adobe Illustrator 28.2.0, SVG Export Plug-In . SVG Version: 6.00 Build 0)  -->
<svg version="1.1" id="그룹_34" xmlns="http://www.w3.org/2000/svg" xmlns:xlink="http://www.w3.org/1999/xlink" x="0px" y="0px"
	 viewBox="0 0 148 51" style="enable-background:new 0 0 148 51;" xml:space="preserve">
<style type="text/css">
	.st0{fill:#999999;}
	.st1{clip-path:url(#SVGID_00000006669749620211185310000005370495017037633721_);fill:#999999;}
	.st2{clip-path:url(#SVGID_00000006669749620211185310000005370495017037633721_);fill:#FFFFFF;}
</style>
<path id="패스_84" class="st0" d="M68.3,49.9l-3.9-5.3l-2.4,2.2v3.1H60V39.1h2.1v5.4l5.7-5.4h2.6l-4.5,4.2l5,6.6L68.3,49.9z"/>
<g>
	<defs>
		<rect id="SVGID_1_" width="148" height="51"/>
	</defs>
	<clipPath id="SVGID_00000094580129458913190100000010687119517037425332_">
		<use xlink:href="#SVGID_1_"  style="overflow:visible;"/>
	</clipPath>
	<path id="패스_85" style="clip-path:url(#SVGID_00000094580129458913190100000010687119517037425332_);fill:#999999;" d="
		M76.9,49.9c-2.9,0-5.1-1.5-5.1-3.8v-7.3h2.2V46c0,1.5,1.2,2.4,3,2.4s3-0.9,3-2.4v-7.3H82v7.3C82,48.4,79.8,49.9,76.9,49.9"/>
	<path id="패스_86" style="clip-path:url(#SVGID_00000094580129458913190100000010687119517037425332_);fill:#999999;" d="
		M94.9,49.9v-7.4l-3.3,5.4H90l-3.4-5.4v7.4h-2.2V38.8h2.2l4.2,6.9l4.1-6.9h2.2v11.1H94.9z"/>
	<path id="패스_87" style="clip-path:url(#SVGID_00000094580129458913190100000010687119517037425332_);fill:#999999;" d="
		M103.5,49.9c-1.8,0.1-3.6-0.4-5.1-1.5l1.4-1.1c1.1,0.8,2.4,1.1,3.7,1.1c1.9,0,3-0.6,3-1.7c0-0.5-0.2-0.9-0.6-1.2
		c-0.5-0.3-1-0.5-1.6-0.5l-1.7-0.2c-1-0.1-1.9-0.4-2.7-0.9c-0.7-0.5-1.1-1.3-1-2.1c0-1.9,1.8-3.3,4.8-3.3c1.6-0.1,3.1,0.4,4.4,1.3
		l-1.4,1.1c-0.9-0.6-2-0.9-3.1-0.9c-1.7,0-2.6,0.7-2.6,1.7c0,0.4,0.2,0.8,0.5,1c0.5,0.3,1,0.5,1.6,0.5l1.6,0.2
		c0.9,0,1.9,0.3,2.7,0.8c0.8,0.5,1.2,1.4,1.2,2.3C108.6,48.7,106.5,49.9,103.5,49.9"/>
	<path id="패스_88" style="clip-path:url(#SVGID_00000094580129458913190100000010687119517037425332_);fill:#999999;" d="
		M115.4,49.9c-2.9,0-5.1-1.5-5.1-3.8v-7.3h2.2V46c0,1.5,1.2,2.4,3,2.4s3-0.9,3-2.4v-7.3h2.2v7.3C120.5,48.4,118.3,49.9,115.4,49.9"
		/>
	<path id="패스_89" style="clip-path:url(#SVGID_00000094580129458913190100000010687119517037425332_);fill:#999999;" d="
		M131.7,49.9l-6.6-7.8v7.8h-2.2V38.8h2l6.6,7.8v-7.8h2.2v11.1H131.7z"/>
	<path id="패스_90" style="clip-path:url(#SVGID_00000094580129458913190100000010687119517037425332_);fill:#999999;" d="
		M144.9,48.6c-2.3,1.7-5.4,1.7-7.7,0.1c-1.4-1.1-1.4-2.3-1.4-4.4s0-3.4,1.4-4.4c1.1-0.8,2.4-1.2,3.8-1.2c3,0,4.8,1.5,5.2,3.4H144
		c-0.4-1.3-1.7-2.1-3-1.9c-0.8,0-1.5,0.2-2.1,0.7c-0.7,0.6-0.9,1.2-0.9,3.4s0.2,2.9,0.9,3.5c0.6,0.5,1.4,0.7,2.1,0.7
		c0.8,0,1.7-0.2,2.3-0.8c0.5-0.4,0.8-1.1,0.7-1.7v-0.6H141v-1.4h5.2v1.7C146.3,46.7,145.8,47.9,144.9,48.6"/>
	<path id="패스_91" style="clip-path:url(#SVGID_00000094580129458913190100000010687119517037425332_);fill:#999999;" d="
		M71.1,15.2c-0.4,0.4-1,0.7-1.6,0.6c-0.4,0-0.7-0.1-1-0.3c-0.3-0.2-0.6-0.5-0.9-0.9c-0.2-0.2-0.4-0.5-0.6-0.7
		c-0.2-0.1-0.4-0.2-0.6-0.2c-0.7,0.1-1.3,0.5-1.6,1.1c-0.2,0.4-0.4,0.9-0.4,1.3c-0.1,0.7-0.1,1.3-0.1,2v9c-0.1,0.6,0,1.2,0.3,1.7
		c0.4,0.3,0.8,0.4,1.3,0.4c0.5,0,0.8,0.2,0.8,0.7c0.1,0.4-0.2,0.7-0.6,0.8c-0.1,0-0.1,0-0.2,0c-0.5,0-1.2,0-2.2-0.1
		c-0.9-0.1-1.6-0.1-2.1-0.1c-0.4,0-1.1,0-1.9,0.1c-0.9,0.1-1.5,0.1-1.9,0.1c-0.2,0-0.4,0-0.6-0.2C57.1,30.5,57,30.3,57,30
		c0-0.5,0.3-0.7,0.8-0.7c0.5,0.1,1-0.1,1.4-0.4c0.3-0.5,0.4-1.1,0.3-1.7V15.9c0-0.6-0.2-1-0.6-1h-0.5c-0.5,0-0.8-0.2-0.8-0.7
		c0-0.4,0.3-0.7,0.8-0.7c1.3-0.3,2.5-0.9,3.4-1.9c0.4-0.4,0.9-0.7,1.5-0.7c0.3,0,0.5,0.1,0.6,0.4c0.1,0.4,0.2,0.8,0.2,1.3
		c0,0.2,0,0.3,0.1,0.3c0.1,0,0.2,0,0.3,0c1-1.1,2.4-1.7,3.9-1.7c0.9-0.1,1.7,0.1,2.4,0.6c0.5,0.4,0.8,1.1,0.7,1.8
		C71.7,14.2,71.5,14.8,71.1,15.2"/>
	<path id="패스_92" style="clip-path:url(#SVGID_00000094580129458913190100000010687119517037425332_);fill:#999999;" d="
		M82.4,29.7c-0.4,0.4-1,0.8-1.5,1.1c-0.6,0.2-1.2,0.4-1.8,0.3c-0.8,0-1.5-0.1-2.2-0.4c-0.7-0.2-1.3-0.7-1.7-1.2
		c-0.4-0.6-0.7-1.2-0.9-1.9c-0.2-1-0.2-2-0.2-2.9V13.9c0.1-0.4-0.2-0.8-0.6-0.8c-0.1,0-0.1,0-0.2,0c-0.7,0-1-0.2-1-0.7
		c0-0.2,0.1-0.5,0.3-0.6c0.3-0.2,0.6-0.4,1-0.5c1.4-0.5,2.4-1.8,3.2-3.9c0.2-0.7,0.6-1,1.1-1c0.3,0,0.6,0.2,0.7,0.5
		c0.2,0.4,0.3,0.8,0.2,1.2v2.5c0,0.3,0.2,0.6,0.5,0.7c0.1,0,0.1,0,0.2,0H82c0.2,0,0.5,0.1,0.7,0.2c0.3,0.4,0.3,1,0,1.4
		c-0.2,0.2-0.4,0.2-0.7,0.2h-2.6c-0.4,0-0.6,0.2-0.6,0.7v12.7c0,0.6,0.1,1.2,0.3,1.7c0.2,0.4,0.7,0.6,1.1,0.5c0.4,0,0.7-0.1,1-0.2
		c0.3-0.2,0.5-0.4,0.8-0.6c0.2-0.2,0.4-0.3,0.6-0.4c0.1,0,0.2,0,0.3,0c0.2,0,0.3,0.1,0.4,0.2c0.1,0.1,0.2,0.2,0.2,0.4
		C83.3,28.7,82.9,29.3,82.4,29.7"/>
	<path id="패스_93" style="clip-path:url(#SVGID_00000094580129458913190100000010687119517037425332_);fill:#999999;" d="
		M107.1,30.7c-0.2,0.1-0.4,0.2-0.6,0.2c-0.5,0-1.2,0-2.1-0.1c-0.9-0.1-1.6-0.1-2-0.1c-0.4,0-1.1,0-1.9,0.1c-0.9,0.1-1.5,0.1-1.9,0.1
		c-0.2,0-0.4,0-0.6-0.2c-0.1-0.2-0.2-0.4-0.2-0.6c0-0.5,0.3-0.7,0.8-0.7c0.5,0.1,0.9-0.1,1.3-0.4c0.3-0.5,0.4-1.1,0.3-1.7v-8.9
		c0-0.7,0-1.5-0.1-2.2c-0.1-0.5-0.2-1-0.5-1.5c-0.4-0.6-0.9-1-1.5-1.3c-0.7-0.3-1.4-0.4-2.1-0.4c-0.7,0-1.3,0.2-1.9,0.5
		c-0.6,0.3-1.2,0.8-1.7,1.3c-0.4,0.4-0.6,0.8-0.7,1.3c-0.1,0.6-0.2,1.3-0.2,1.9v9.3c-0.1,0.6,0,1.2,0.3,1.7c0.3,0.3,0.8,0.5,1.3,0.4
		c0.5,0,0.7,0.2,0.7,0.7c0.1,0.3-0.1,0.7-0.4,0.8c-0.1,0-0.2,0-0.3,0c-0.5,0-1.2,0-2.1-0.1c-0.9-0.1-1.5-0.1-2-0.1
		c-0.4,0-1,0-1.9,0.1c-0.9,0.1-1.5,0.1-1.9,0.1c-0.2,0-0.4,0-0.6-0.2c-0.1-0.2-0.2-0.4-0.2-0.6c0-0.2,0-0.4,0.2-0.5
		c0.2-0.1,0.4-0.2,0.6-0.2c0.5,0.1,1-0.1,1.3-0.4c0.3-0.5,0.4-1.1,0.3-1.7V4.6c0-0.8-0.4-1.2-1.3-1.3c-0.3,0-0.5-0.1-0.8-0.2
		c-0.2-0.1-0.3-0.3-0.2-0.5c0-0.2,0.1-0.4,0.2-0.5C84.8,2,85,2,85.3,2c0.7,0,1.3-0.2,2-0.4c0.6-0.2,1.1-0.4,1.6-0.8
		c0.4-0.4,1-0.7,1.6-0.7c0.3,0,0.6,0.1,0.8,0.4c0.1,0.4,0.2,0.9,0.2,1.4v10.4c0,0.2,0,0.5,0.2,0.7c0.1,0.1,0.3,0.1,0.5-0.1
		c1.5-1.3,3.5-1.9,5.5-1.9c2.7,0,4.6,0.8,5.8,2.4c0.6,0.8,1,1.8,1.2,2.8c0.2,1.3,0.3,2.6,0.3,4v7.1c-0.1,0.6,0.1,1.2,0.4,1.7
		c0.4,0.3,0.8,0.5,1.3,0.4c0.5,0,0.8,0.2,0.8,0.7C107.3,30.3,107.2,30.5,107.1,30.7"/>
	<path id="패스_94" style="clip-path:url(#SVGID_00000094580129458913190100000010687119517037425332_);fill:#999999;" d="
		M126.8,28.8c-0.3,0.2-0.7,0.3-1,0.4c-1.1,0.4-2.1,0.9-3.1,1.6c-0.5,0.3-1,0.6-1.6,0.6c-0.3,0-0.5-0.1-0.6-0.3
		c-0.2-0.2-0.2-0.5-0.2-0.8v-0.6c0-0.1,0-0.2-0.1-0.2c0-0.1-0.1,0-0.2,0c-0.6,0.6-1.4,1-2.2,1.2c-1.1,0.3-2.3,0.4-3.4,0.4
		c-1.1,0-2.1-0.2-3.1-0.7c-1-0.5-1.8-1.2-2.4-2.1c-0.5-0.7-0.9-1.6-1.1-2.4c-0.2-1.3-0.3-2.6-0.3-4v-7.6c0-0.4-0.1-0.9-0.3-1.3
		c-0.3-0.3-0.7-0.4-1.1-0.3c-0.2,0-0.5,0-0.6-0.2c-0.2-0.1-0.2-0.3-0.2-0.5c0-0.2,0-0.5,0.2-0.7c0.2-0.1,0.4-0.2,0.7-0.2
		c0.4,0,0.8,0,1.1,0l1.1,0l1.4,0c0.3,0,0.7,0,1.2,0c0.4,0,0.7,0.1,1,0.3c0.2,0.3,0.3,0.7,0.2,1.1v11c0,0.8,0,1.7,0.2,2.5
		c0.1,0.6,0.4,1.1,0.8,1.6c0.8,0.8,1.9,1.2,3,1.1c0.7,0,1.4-0.1,2-0.4c0.6-0.2,1.1-0.6,1.4-1.1c0.3-0.4,0.4-0.8,0.5-1.3
		c0.1-0.6,0.2-1.2,0.2-1.8v-9.9c0-0.4-0.1-0.9-0.3-1.3c-0.3-0.3-0.7-0.4-1.1-0.3c-0.2,0-0.5,0-0.6-0.2c-0.2-0.1-0.2-0.3-0.2-0.5
		c0-0.2,0-0.5,0.2-0.7c0.2-0.1,0.4-0.2,0.7-0.2c0.4,0,0.8,0,1.1,0l1.1,0l1.4,0c0.3,0,0.7,0,1.2,0c0.4,0,0.7,0.1,1,0.3
		c0.2,0.3,0.3,0.7,0.2,1.1v13.8c0,0.8,0.3,1.2,0.8,1.2h0.5c0.2,0,0.5,0,0.6,0.2c0.2,0.1,0.3,0.2,0.3,0.4
		C127.1,28.5,127,28.7,126.8,28.8"/>
	<path id="패스_95" style="clip-path:url(#SVGID_00000094580129458913190100000010687119517037425332_);fill:#999999;" d="
		M145.2,28.3c-2.1,2-5,3.1-7.9,3c-1.9,0.1-3.7-0.4-5.3-1.4c-0.1-0.1-0.3-0.2-0.4-0.3c-0.1-0.1-0.3-0.2-0.5-0.2
		c-0.3,0-0.5,0.2-0.7,0.7c-0.3,0.8-1.1,1.4-2,1.4c-0.4,0-0.7-0.3-0.7-0.8c0-0.2,0-0.4,0-0.7c0.2-1.4,0.3-2.9,0.3-4.3V4.6
		c0-0.8-0.4-1.2-1.3-1.3c-0.2,0-0.5-0.1-0.7-0.2c-0.2-0.1-0.2-0.3-0.2-0.5c0-0.4,0.3-0.7,0.8-0.7c0.7-0.1,1.4-0.2,2.1-0.4
		c0.6-0.2,1.1-0.4,1.6-0.8c0.4-0.4,1-0.6,1.6-0.7c0.3,0,0.6,0.1,0.8,0.4c0.2,0.5,0.2,0.9,0.2,1.4v9.8c0,0.2,0,0.4,0.2,0.5
		c0.1,0.1,0.3,0.1,0.5,0c1.5-0.8,3.2-1.2,4.9-1.2c2.5,0,4.9,0.9,6.6,2.7c2,2,3.1,4.7,3,7.6C148.1,23.8,147.1,26.4,145.2,28.3
		 M142.7,17.5c-0.2-1-0.7-1.9-1.3-2.7c-0.5-0.6-1.1-1.1-1.8-1.5c-0.7-0.3-1.5-0.5-2.3-0.5c-0.7,0-1.4,0.1-2.1,0.3
		c-0.7,0.2-1.3,0.6-1.8,1c-0.4,0.3-0.6,1-0.6,2v9.9c-0.1,1,0.2,1.9,0.9,2.6c1,0.7,2.1,1.1,3.3,1c0.8,0,1.6-0.1,2.3-0.5
		c0.7-0.3,1.3-0.8,1.9-1.4c0.7-0.8,1.1-1.8,1.4-2.8c0.3-1.3,0.5-2.6,0.5-3.9C143.1,20,143,18.7,142.7,17.5"/>
	<path id="패스_96" style="clip-path:url(#SVGID_00000094580129458913190100000010687119517037425332_);fill:#999999;" d="
		M50.7,25.5c-0.1,14-11.5,25.3-25.5,25.2S-0.1,39.3,0,25.3c0.1-14,11.4-25.2,25.3-25.2C39.4,0.1,50.7,11.5,50.7,25.5"/>
	<path id="패스_97" style="clip-path:url(#SVGID_00000094580129458913190100000010687119517037425332_);fill:#FFFFFF;" d="
		M22,41.1c0.3-0.1,0.6-0.3,0.7-0.6l0.3-1.3c0-0.2-0.1-0.4-0.3-0.4c-1.9,0-2.8-0.7-2.8-2c0-0.7,0.2-1.4,0.5-2c0.4-0.9,1-2.1,1.3-3
		l2.7-5.4c4.1,2.1,7.5,5.6,8.2,9.4c0.2,1.8-0.2,2.9-2,2.9c-0.4,0-0.6,0.2-0.7,0.6l-0.3,1.3c-0.1,0.3,0.1,0.4,0.3,0.4H41
		c0.3-0.1,0.6-0.3,0.7-0.6l0.3-1.3c0-0.2-0.1-0.4-0.3-0.4c-1.8,0-3-1.1-3.3-3.9l-1.2-10.5c-0.3-2.7-0.5-5.4-0.8-8.1l-0.6-6.5
		c0-0.3-0.2-0.6-0.5-0.6c0,0,0,0-0.1,0h-8.3c-0.3,0.1-0.5,0.3-0.6,0.7l-0.4,1.2c0,0.2,0.1,0.4,0.4,0.4c1.6,0,1.7,1,1.2,2.4l-4.6,9.6
		c-0.9-0.2-1.9-0.3-2.8-0.4c-6.3,0-12.4,4.1-12.4,8.6c0,1.9,1.5,3.6,3.4,3.6c0.1,0,0.2,0,0.4,0c0.4,0,0.7-0.1,1.1-0.2
		c0.2-0.1,0.5-0.2,0.7-0.3c1.5-0.7,2.2-2.2,1.7-3.3c-0.3-0.6-0.9-0.9-1.5-1c-0.1,0-0.2,0-0.3,0c0,0,0,0-0.1,0c-0.3,0-0.5,0-0.8,0.1
		c0-0.3-0.1-0.5-0.1-0.8c0-2,1.4-4.4,5.5-4.9c1.5-0.1,2.9,0.1,4.4,0.5l-4.1,8.6c-1.3,2.5-2.9,4.6-5.5,4.6c-0.4,0-0.6,0.2-0.7,0.6
		l-0.3,1.3c-0.1,0.3,0.1,0.4,0.3,0.4L22,41.1z M32.1,28.3c-1.9-1.8-4.1-3.1-6.5-4.1l5.3-11.5l0.6,5.2l0.6,8.4L32.1,28.3z"/>
</g>
</svg>
